<svg width="93" height="94" viewBox="0 0 93 94" fill="none" xmlns="http://www.w3.org/2000/svg">
<path d="M84.958 46.9991C84.958 25.7609 67.7213 8.52417 46.4831 8.52417C25.2449 8.52417 8.00818 25.7609 8.00818 46.9991C8.00818 68.2373 25.2449 85.474 46.4831 85.474" stroke="#ED1C24" stroke-width="5" stroke-linecap="round" stroke-linejoin="round"/>
<path d="M31.0912 12.3713H34.9387C27.4361 34.8407 27.4361 59.1569 34.9387 81.6262H31.0912" stroke="#ED1C24" stroke-width="5" stroke-linecap="round" stroke-linejoin="round"/>
<path d="M58.0261 12.3713C61.7582 23.606 63.6435 35.3024 63.6435 46.9988" stroke="#ED1C24" stroke-width="5" stroke-linecap="round" stroke-linejoin="round"/>
<path d="M11.8557 62.3892V58.5417C23.0904 62.2738 34.7868 64.1592 46.4832 64.1592" stroke="#ED1C24" stroke-width="5" stroke-linecap="round" stroke-linejoin="round"/>
<path d="M11.8557 35.4544C34.3251 27.9517 58.6412 27.9517 81.1106 35.4544" stroke="#ED1C24" stroke-width="5" stroke-linecap="round" stroke-linejoin="round"/>
<path d="M70.3382 83.1648C77.1379 83.1648 82.6502 77.6525 82.6502 70.8528C82.6502 64.0531 77.1379 58.5408 70.3382 58.5408C63.5385 58.5408 58.0262 64.0531 58.0262 70.8528C58.0262 77.6525 63.5385 83.1648 70.3382 83.1648Z" stroke="#ED1C24" stroke-width="5" stroke-linecap="round" stroke-linejoin="round"/>
<path d="M84.9595 85.474L81.112 81.6265" stroke="#ED1C24" stroke-width="5" stroke-linecap="round" stroke-linejoin="round"/>
</svg>
