<svg width="101" height="100" viewBox="0 0 101 100" fill="none" xmlns="http://www.w3.org/2000/svg">
<path d="M0.477997 44.4646C6.68668 36.7776 12.8954 29.09 19.1041 21.4016C20.2001 20.0488 20.9686 19.9253 22.4567 20.8683C25.5075 22.7996 28.5347 24.77 31.611 26.6561C32.5449 27.2306 33.5501 27.6801 34.6009 27.9933C37.5929 28.8756 40.6103 29.6696 43.6297 30.4519C44.1251 30.5752 44.6436 30.5718 45.1374 30.4421C48.2999 29.5677 51.4448 28.6285 54.6053 27.7463C55.2283 27.5704 55.8717 27.4774 56.5189 27.4698C60.6853 27.4463 64.8536 27.4698 69.0199 27.4365C69.5918 27.4249 70.1508 27.264 70.6414 26.9698C73.8725 24.9602 77.0703 22.8956 80.2838 20.8566C81.7563 19.9233 82.5758 20.0566 83.6169 21.4212C89.0008 28.4063 94.3795 35.3947 99.7529 42.3863C100.821 43.7745 100.72 44.6548 99.3726 45.8175C96.514 48.284 93.6436 50.7367 90.7968 53.2169C90.4334 53.5343 90.1368 53.9209 89.9243 54.3541C88.0015 58.3342 86.0997 62.3208 84.2188 66.314C84.0557 66.6717 84.0381 67.0788 84.1698 67.4492C86.452 72.2606 83.6561 77.17 78.3251 77.672C78.2338 77.6896 78.144 77.7145 78.0565 77.7465C77.5958 82.3598 74.6215 84.5244 70.9492 84.7891C70.863 86.6419 70.2708 88.33 68.9278 89.6907C67.5848 91.0513 65.928 91.7082 63.9497 91.7729C63.7282 94.8177 62.3812 97.1646 59.4854 98.2959C56.5895 99.4272 53.9956 98.6508 51.6899 96.4745C49.7037 98.792 47.302 100.121 44.2002 99.3723C41.0985 98.6233 39.4261 96.5392 38.8242 93.4394C38.1909 93.408 37.5478 93.4159 36.9165 93.3375C35.3675 93.162 33.9258 92.4601 32.8323 91.3491C31.7389 90.2382 31.0599 88.7855 30.9091 87.234C30.8522 86.7223 30.8326 86.3556 30.1248 86.2752C26.2839 85.84 23.8096 82.9676 23.8723 79.1052C23.8723 78.8836 23.8723 78.6621 23.8723 78.4092C23.3371 78.27 22.8273 78.1758 22.3411 78.017C21.3233 77.6642 20.4024 77.0778 19.6522 76.3047C18.9021 75.5316 18.3436 74.5935 18.0216 73.5655C17.6996 72.5376 17.6231 71.4485 17.7981 70.3856C17.9732 69.3227 18.3949 68.3157 19.0296 67.4453C19.4668 66.8414 19.4217 66.4983 19.0021 65.9513C16.4199 62.5182 13.9044 59.042 11.2968 55.6246C10.6949 54.8403 9.89494 54.1835 9.14009 53.5247C6.63636 51.3445 4.10322 49.1976 1.59753 47.0213C1.20481 46.6489 0.83178 46.2562 0.479959 45.8449L0.477997 44.4646ZM49.2038 83.3068C49.2528 83.35 49.2959 83.4186 49.3508 83.4284C53.5466 84.1126 56.2699 88.7437 54.4583 93.0355C54.3799 93.2316 54.4151 93.6237 54.5367 93.7061C55.2445 94.1296 55.9582 94.6589 56.7385 94.8177C57.9286 95.0609 59.0913 94.3197 59.6324 93.263C59.9235 92.7106 60.0333 92.0806 59.9464 91.4623C59.8595 90.8441 59.5802 90.2688 59.1481 89.8181C57.9031 88.4888 56.5993 87.2144 55.317 85.9184C55.0877 85.687 54.8543 85.4596 54.6308 85.2243C53.6917 84.244 53.6211 83.1068 54.4348 82.2834C55.2484 81.4599 56.4385 81.5187 57.3757 82.45C58.8325 83.8911 60.2677 85.3557 61.7048 86.8183C62.5459 87.6732 63.5439 88.0457 64.7183 87.7516C67.0711 87.1634 67.7514 84.4048 65.979 82.5755C63.5086 80.0267 60.9911 77.5308 58.4972 75.0074C58.1188 74.6504 57.7632 74.27 57.4326 73.8683C57.1553 73.5019 57.0175 73.0488 57.0437 72.5901C57.0699 72.1314 57.2585 71.697 57.5757 71.3646C57.907 71.0229 58.3513 70.8134 58.8257 70.7752C59.3001 70.737 59.7722 70.8726 60.1539 71.1568C60.4083 71.3592 60.6463 71.5814 60.8656 71.8214C63.4537 74.4356 66.0391 77.0498 68.6219 79.664C69.5042 80.56 70.514 81.0501 71.7825 80.707C74.1353 80.0698 74.7744 77.3347 72.9883 75.5192C69.131 71.5979 65.2634 67.6877 61.3852 63.7887C60.9814 63.4108 60.6022 63.0074 60.25 62.5809C59.9514 62.2075 59.8056 61.7348 59.842 61.2581C59.8784 60.7814 60.0943 60.3362 60.4461 60.0125C60.7806 59.6988 61.2145 59.5123 61.6723 59.4854C62.1301 59.4586 62.5828 59.593 62.9518 59.8654C63.2556 60.1104 63.5407 60.3778 63.8046 60.6654C67.7416 64.6455 71.6792 68.6243 75.6175 72.6017C77.0782 74.0722 78.9251 74.1703 80.1916 72.8821C81.4582 71.594 81.3406 69.8098 79.9074 68.3727C72.4099 60.8673 64.9033 53.3705 57.3875 45.8822C57.0157 45.5449 56.5458 45.3353 56.0464 45.2842C53.7152 45.0744 51.3722 44.9705 49.041 44.7587C48.3646 44.6979 47.9999 44.8332 47.6686 45.4606C46.219 48.114 44.7302 50.7452 43.2023 53.3542C41.5847 56.1206 38.4967 57.4244 35.5303 56.6676C31.0208 55.5148 28.9072 50.6014 31.2071 46.4488C33.4579 42.3824 35.7832 38.3572 38.0693 34.3124C38.2654 33.9791 38.434 33.636 38.6693 33.2008C36.8302 32.7008 35.0891 32.1989 33.3285 31.7852C33.0716 31.7244 32.6266 32.0087 32.4207 32.2577C26.7871 39.0846 21.1666 45.9214 15.5592 52.7679C15.2985 53.0855 15.0534 53.4149 14.7946 53.7482L22.3489 63.9161C24.5193 62.1927 26.8211 61.7104 29.3249 62.577C31.8737 63.4632 33.2638 65.414 33.8539 67.9511C38.5908 67.3629 42.0396 70.149 42.3651 74.8388C47.5941 75.2898 49.8351 79.2973 49.2038 83.3068ZM81.023 63.8828C82.764 60.238 84.4619 56.7284 86.0932 53.1875C86.2265 52.9012 86.0206 52.3229 85.7873 52.0248C80.5589 45.3351 75.3156 38.6539 70.0571 31.9812C69.9126 31.7728 69.716 31.6058 69.4869 31.4967C69.2579 31.3877 69.0043 31.3405 68.7513 31.3597C64.7791 31.3832 60.8088 31.3597 56.8365 31.3813C56.3189 31.3867 55.8044 31.4625 55.3072 31.6068C51.682 32.6361 48.0882 33.7948 44.4316 34.6967C42.5709 35.1555 41.4475 36.0907 40.5711 37.7769C38.7261 41.3237 36.6498 44.7509 34.6892 48.2389C33.8696 49.6976 34.0696 51.1563 35.1656 52.1601C36.6341 53.4973 38.83 53.0954 39.8868 51.2563C41.6383 48.2121 43.367 45.1554 45.0727 42.0864C45.6276 41.0864 46.3765 40.6433 47.5313 40.7335C50.7769 40.9871 54.023 41.21 57.2698 41.4021C58.2502 41.4609 58.9658 41.8589 59.6501 42.5432C66.4731 49.3937 73.3092 56.2343 80.1583 63.0652C80.4073 63.3064 80.6681 63.5436 81.023 63.8828ZM29.2994 29.8638L21.3784 24.8328L5.16 44.9175L12.0693 50.8524L29.2994 29.8638ZM88.9224 49.6407L95.8277 43.6941L81.319 24.8504L73.402 29.8951C78.5996 36.5084 83.7208 43.0236 88.9243 49.6407H88.9224ZM31.0992 82.4206C31.3933 82.303 32.0796 82.2246 32.4952 81.8324C34.2951 80.1404 36.0773 78.4209 37.738 76.5956C38.781 75.4506 38.5536 73.6546 37.4674 72.6076C36.3812 71.5606 34.6088 71.4567 33.4736 72.5214C31.7659 74.1232 30.1091 75.7839 28.5014 77.4857C27.6466 78.3935 27.5505 79.5444 28.0622 80.6757C28.5739 81.8069 29.5288 82.3677 31.0992 82.4206ZM42.0788 78.8189C41.7279 78.9777 40.9965 79.1209 40.5338 79.5542C38.7967 81.1717 37.1066 82.8461 35.4832 84.5773C34.4402 85.687 34.5735 87.5183 35.6224 88.5731C36.7106 89.6769 38.4575 89.871 39.5986 88.8201C41.3632 87.1908 43.0709 85.4871 44.6963 83.7225C45.5256 82.8245 45.6158 81.6599 45.059 80.5266C44.5296 79.4208 43.612 78.9111 42.0808 78.8189H42.0788ZM51.0977 89.8142C51.0977 89.0476 50.5703 88.132 49.4841 87.583C48.3607 87.0164 47.2353 87.1144 46.3001 87.9222C45.2694 88.8124 44.3055 89.777 43.416 90.8082C42.5768 91.7886 42.5317 92.9649 43.1317 94.0884C43.7316 95.2118 44.7002 95.6981 45.9491 95.6334C47.7549 95.5412 51.0762 92.063 51.0919 89.8142H51.0977ZM29.9778 68.7981C29.9601 67.8629 29.4405 66.9277 28.3543 66.4002C27.2682 65.8728 26.1035 65.9238 25.1624 66.7453C24.1354 67.64 23.1711 68.6043 22.2764 69.6314C21.4647 70.5705 21.4019 71.7038 21.9529 72.8233C22.5038 73.9428 23.4371 74.4447 24.6233 74.4644C26.4761 74.4977 29.9601 70.9548 29.9778 68.7981Z" fill="#ED1C24"/>
<path d="M76.6788 8.29375C76.2592 8.99566 76.0494 9.5662 75.6612 9.95833C71.3361 14.324 66.9933 18.6734 62.6328 23.0064C61.6701 23.9651 60.5251 24.0122 59.6918 23.1887C58.8586 22.3652 58.8782 21.2281 59.8448 20.2576C64.1817 15.901 68.5258 11.5523 72.8771 7.21147C73.5653 6.52329 74.4005 6.16449 75.2456 6.6723C75.822 7.01737 76.1847 7.70948 76.6788 8.29375Z" fill="#ED1C24"/>
<path d="M26.379 6.20874C27.0691 6.60087 27.62 6.79693 27.9886 7.15573C32.4001 11.5279 36.7945 15.9178 41.172 20.3253C42.0896 21.2488 42.0856 22.3722 41.2641 23.1879C40.4426 24.0035 39.3035 23.9721 38.3996 23.0781C33.996 18.6954 29.6029 14.3036 25.2202 9.90258C24.5634 9.24577 24.2399 8.41054 24.7654 7.60864C25.132 7.04594 25.8104 6.68518 26.379 6.20874Z" fill="#ED1C24"/>
<path d="M52.4353 16.2413C52.4353 17.9961 52.4353 19.7528 52.4353 21.5076C52.4353 22.8957 51.6177 23.7878 50.4295 23.7584C49.2767 23.727 48.5297 22.8604 48.5257 21.5056C48.5179 17.9948 48.5179 14.4833 48.5257 10.9711C48.5257 9.66338 49.3492 8.75756 50.4864 8.75952C51.6236 8.76149 52.4294 9.66142 52.447 10.975C52.4451 12.7298 52.4353 14.4846 52.4353 16.2413Z" fill="#ED1C24"/>
<path d="M50.4732 0.913825C50.857 0.912809 51.2326 1.02503 51.5529 1.23643C51.8733 1.44784 52.1241 1.74904 52.2741 2.10232C52.4241 2.45561 52.4665 2.84529 52.3961 3.22258C52.3257 3.59987 52.1456 3.948 51.8782 4.2234C51.6109 4.4988 51.2683 4.68924 50.8933 4.77086C50.5182 4.85249 50.1275 4.82167 49.7699 4.68228C49.4123 4.54289 49.1038 4.30111 48.8829 3.98722C48.662 3.67332 48.5387 3.30126 48.5283 2.9176C48.5226 2.65783 48.5685 2.39952 48.6635 2.15767C48.7585 1.91582 48.9006 1.69527 49.0816 1.50883C49.2625 1.32238 49.4788 1.17377 49.7177 1.07163C49.9566 0.96948 50.2134 0.915841 50.4732 0.913825Z" fill="#ED1C24"/>
</svg>
