<svg width="55" height="64" viewBox="0 0 55 64" fill="none" xmlns="http://www.w3.org/2000/svg">
<path d="M33.7425 54.6053C33.7425 56.1364 33.7321 57.5651 33.7546 58.9938C33.7581 59.1828 33.8985 59.4048 34.039 59.5487C34.521 60.0428 35.0308 60.5093 35.5301 60.9878C36.3312 61.7577 36.4543 62.2241 35.9896 62.7234C35.5058 63.2436 35.0429 63.1569 34.2384 62.3923C33.8638 62.0368 33.4876 61.6814 33.0541 61.2704C31.5699 63.6667 29.2187 62.9419 27.0878 62.9645C26.5693 62.9697 26.3318 62.5258 26.3491 62.0282C26.3665 61.5253 26.6352 61.1681 27.1623 61.1456C28.0483 61.1075 28.9378 61.1404 29.8239 61.104C30.2365 61.0884 30.7324 61.104 31.0324 60.8872C31.3844 60.6341 31.7676 60.1538 31.7884 59.7533C31.8751 58.1286 31.8334 56.4988 31.8196 54.8706C31.8196 54.7059 31.7259 54.4788 31.5994 54.3903C30.611 53.7089 29.6054 53.0552 28.6049 52.3929C28.4836 52.3131 28.3587 52.2403 28.4159 52.275C27.4224 52.9997 26.5086 53.6448 25.6278 54.3314C25.4596 54.4632 25.3452 54.7614 25.34 54.9868C25.3157 56.5161 25.3348 58.0454 25.3244 59.5764C25.3123 61.4525 24.0916 62.8171 22.2138 62.961C21.1093 63.0459 19.9961 63.0043 18.8864 63.0043C18.2952 63.0043 17.9449 62.6697 17.9328 62.0958C17.9189 61.4837 18.2726 61.1352 18.9003 61.1265C19.8366 61.1127 20.7764 61.1369 21.7127 61.1057C23.0565 61.0606 23.4136 60.6809 23.4154 59.3579C23.4188 57.7801 23.4154 56.204 23.4154 54.562C20.5111 53.754 19.5349 51.3612 18.7737 48.8297C18.5865 48.2038 18.2605 47.8449 17.6952 47.5518C14.4875 45.8925 11.422 44.013 8.80901 41.4884C3.32469 36.1879 2.24274 29.8973 4.65979 22.8334C4.74649 22.5802 4.84185 22.3288 4.93028 22.0791C2.12657 20.8117 1.54571 18.9269 2.95017 15.4851C2.4248 15.6481 1.97052 15.7886 1.51624 15.9307C0.477631 16.255 -0.11883 15.7487 0.0198823 14.6598C0.201942 13.2276 0.897234 12.0503 2.49415 10.5088C2.4248 10.4291 2.35718 10.3389 2.28089 10.2609C0.281701 8.23049 0.403073 4.73842 2.5375 2.85021C3.48941 2.00753 4.55229 1.91563 5.67933 2.40286C7.13233 -0.482346 8.43276 -0.730294 10.6816 1.44922C11.5989 0.849288 12.582 0.209479 13.7298 0.606542C14.3939 0.835416 15.0909 1.24808 15.5383 1.77692C16.8179 3.28715 16.622 5.04532 15.1291 6.77055C18.4235 9.26563 20.5527 12.7958 23.2142 15.8544C23.6182 16.3191 24.0222 16.7855 24.4072 17.2676C27.6235 21.3128 32.0641 22.4242 36.9276 22.4016C38.3928 22.3947 39.877 22.1797 41.3161 21.8815C42.9321 21.5451 44.3227 20.6955 45.526 19.5355C46.3236 18.7674 47.1802 18.0565 48.035 17.3508C48.354 17.0872 48.7233 16.8653 49.1031 16.6989C50.1451 16.2446 51.1872 16.2255 52.0871 17.004C52.9385 17.7427 52.9627 18.7171 52.6784 19.728C52.6055 19.9881 52.5102 20.2412 52.4044 20.5568C53.2124 20.5256 53.7534 20.9088 54.0742 21.611C54.4383 22.4051 54.4209 23.194 53.9823 23.95C53.6528 24.5187 53.287 25.0684 52.9367 25.6284C55.2914 26.882 55.6676 28.9644 53.8748 30.8995C52.4304 32.4583 51.2756 34.1922 50.4919 36.1549C48.9141 40.1047 46.4433 43.3887 43.3379 46.2705C41.4791 47.994 39.7504 49.8666 38.0408 51.7409C36.8323 53.0656 35.7295 54.4736 33.7407 54.6053H33.7425ZM5.29787 28.9991C5.37416 29.932 5.4019 30.8717 5.53715 31.7959C6.06945 35.418 7.98888 38.2668 10.6868 40.6076C14.621 44.0234 19.0702 46.5618 24.0517 48.1396C26.5849 48.9424 28.9586 50.04 30.9804 51.8294C32.6449 53.3032 34.228 53.1107 35.7486 51.4635C37.8206 49.2164 39.8683 46.9346 42.0895 44.8383C44.9521 42.1369 47.2617 39.1078 48.7303 35.4371C49.5886 33.2923 50.8092 31.3538 52.4235 29.6805C52.5934 29.5054 52.8188 29.3043 52.8483 29.091C52.9072 28.6575 52.9593 28.1599 52.7893 27.7923C52.7182 27.6397 52.0455 27.664 51.6935 27.7681C51.1785 27.9189 50.7607 27.9102 50.4486 27.4594C50.1382 27.0121 50.2232 26.5751 50.5942 26.1885C50.6965 26.081 50.8179 25.9839 50.8907 25.859C51.3814 25.0129 51.9501 24.1962 52.3212 23.2981C52.6576 22.4814 52.2778 22.1346 51.4126 22.2959C51.3155 22.3132 51.2046 22.3895 51.1283 22.3618C50.7624 22.2283 50.2734 22.1589 50.0897 21.8884C49.9301 21.6561 50.0567 21.1584 50.1798 20.8238C50.3029 20.4892 50.6844 20.236 50.7641 19.9014C50.8751 19.4315 50.811 18.92 50.8214 18.4258C50.3463 18.5246 49.7689 18.483 49.4186 18.7466C48.3783 19.5303 47.4732 20.4961 46.4277 21.2746C45.4099 22.0306 44.3487 22.79 43.1922 23.2842C40.6677 24.3644 37.968 24.413 35.2648 24.2899C29.973 24.0471 25.6018 22.0132 22.2987 17.7756C20.3273 15.2476 18.2692 12.7854 16.2093 10.3268C14.7476 8.58247 12.8733 7.50226 10.5984 7.18495C8.62869 6.911 6.94681 7.75887 6.21683 9.35232C6.05038 9.71644 6.01744 9.9904 6.31914 10.3458C7.1202 11.2908 7.31092 12.4023 7.06124 13.6125C7.01616 13.8345 7.07685 14.1361 7.20169 14.3269C8.62522 16.5203 8.86623 18.7657 7.55367 21.0926C6.17002 23.546 5.45565 26.1833 5.30134 28.9991H5.29787ZM3.98531 9.31938C4.1795 9.18414 4.20725 9.17373 4.21592 9.15466C4.32515 8.93619 4.42919 8.71425 4.54015 8.49578C5.30654 6.99249 6.49773 5.99203 8.11199 5.50307C9.57713 5.05919 11.0284 5.1979 12.4727 5.62444C12.6999 5.69033 12.9686 5.77703 13.1767 5.71461C13.8512 5.51174 14.3766 5.10081 14.4459 4.34136C14.5135 3.60098 14.2257 2.98372 13.5963 2.57105C12.9513 2.14971 12.4311 2.46875 11.9456 2.90916C11.8555 2.99239 11.7566 3.06694 11.6561 3.13803C10.8359 3.71715 10.0609 3.55764 9.38293 2.81379C9.08817 2.48956 8.53506 2.10983 8.20562 2.18959C7.86231 2.27282 7.62823 2.87101 7.38375 3.26634C7.28492 3.42413 7.29879 3.64953 7.23637 3.83506C7.00923 4.50435 6.44918 4.79911 5.77989 4.59277C5.57183 4.52862 5.3811 4.40378 5.18343 4.30668C4.31995 3.88014 3.91248 3.97551 3.38365 4.77657C2.70049 5.8117 2.54964 6.94567 3.01779 8.08484C3.21199 8.55646 3.6628 8.92232 3.98531 9.32111V9.31938ZM21.0382 49.1522C20.9792 49.206 20.922 49.2597 20.8631 49.3135C21.2705 50.0504 21.6 50.848 22.1028 51.5121C23.4067 53.2373 25.2654 53.0847 26.4826 51.1202C24.6534 50.4579 22.8467 49.8042 21.0399 49.1505L21.0382 49.1522ZM5.41231 15.6741C4.22285 16.5948 3.71482 18.2698 4.38757 19.376C4.59391 19.7141 5.09847 20.0557 5.46606 20.0557C5.77469 20.0557 6.2151 19.6153 6.36422 19.2702C6.86705 18.1085 6.4041 16.5272 5.41231 15.6758V15.6741ZM2.57565 13.727C3.24146 13.5934 3.90035 13.3992 4.5731 13.342C5.26492 13.2831 5.33255 12.8912 5.19383 12.3884C5.11407 12.1006 4.8904 11.8526 4.73782 11.5995C3.31602 12.1699 2.73517 12.7542 2.57565 13.727Z" fill="#ED1C24"/>
<path d="M35.9691 38.612C34.7069 38.1785 33.5191 37.8022 32.3574 37.3601C31.78 37.1399 31.5061 36.6873 31.8043 36.0527C32.0696 35.4875 32.5846 35.3332 33.2348 35.6973C37.136 37.8837 42.0447 34.9812 43.4995 32.3387C44.0266 31.3799 43.9104 31.1181 42.8406 30.8805C40.3646 30.3274 37.8851 29.7899 35.4091 29.2368C34.5907 29.053 34.2716 28.6577 34.4069 28.056C34.5421 27.4509 35.012 27.2203 35.8027 27.3919C38.3792 27.9485 40.9558 28.4981 43.5289 29.0738C45.4137 29.4951 46.1402 30.8996 45.4397 32.708C44.9421 33.9929 44.0214 34.9482 42.9845 35.8031C41.7326 36.8347 40.3143 37.5578 38.7642 38.0346C38.518 38.1109 38.2076 38.3051 38.1226 38.5218C36.4269 42.8895 32.373 44.9164 27.2199 43.7894C23.1348 42.8964 19.5561 40.9215 16.4004 38.2513C12.9967 35.373 11.9789 30.8389 13.7579 27.1422C15.1398 24.2692 17.4892 22.7711 20.6605 22.5613C21.531 22.5041 21.9783 22.8214 22.0147 23.4525C22.0511 24.0871 21.6263 24.4321 20.7663 24.4651C16.4888 24.6315 13.803 28.7652 15.1589 33.0947C15.6132 34.5442 16.3969 35.8031 17.569 36.7498C20.6918 39.2726 24.1197 41.2198 28.1111 42.0069C29.4809 42.2774 30.8593 42.2896 32.217 41.9116C34.0532 41.4001 35.2582 40.1881 35.9691 38.612Z" fill="#ED1C24"/>
<path d="M12.3253 10.736C12.3236 11.733 11.5399 12.5028 10.5394 12.4924C9.57709 12.482 8.81417 11.7243 8.79857 10.762C8.78296 9.77885 9.57708 8.95698 10.5498 8.94831C11.5208 8.93964 12.327 9.75111 12.3253 10.736Z" fill="#ED1C24"/>
</svg>
