<svg width="63" height="60" viewBox="0 0 63 60" fill="none" xmlns="http://www.w3.org/2000/svg">
<path d="M61.1744 27.1424C61.8899 26.458 62.265 25.6766 62.2595 24.8805C62.2559 24.1028 61.8862 23.3489 61.1908 22.6992C60.5302 22.0807 59.9336 21.6781 59.3645 21.4695C57.5803 20.8125 55.9608 20.3111 54.4108 19.9378C53.5288 19.7255 52.5992 19.6231 51.7025 19.5242C51.2999 19.4803 50.8845 19.4346 50.4764 19.3778L50.3776 19.365L50.3977 19.268C50.4032 19.2461 50.405 19.2278 50.4069 19.2095C50.4123 19.1656 50.4197 19.118 50.4489 19.0777C50.5295 18.9679 50.6118 18.86 50.6942 18.7538C50.7417 18.6934 50.7875 18.633 50.8351 18.5708C52.3667 16.5524 53.2671 14.2814 53.5086 11.8219C53.8691 8.17298 52.9523 4.65213 50.6283 0.745162C50.2678 0.137614 49.8743 -0.0838124 49.3565 0.0278153C48.8496 0.135783 48.5787 0.485306 48.4543 1.19716C48.3116 2.006 48.1743 2.66662 48.0224 3.27417C46.9555 7.51968 45.272 10.5958 42.721 12.951C42.4483 13.2035 41.9963 13.3792 41.623 13.3811C34.8833 13.4067 27.977 13.4085 20.5126 13.392C20.1777 13.392 19.7312 13.2584 19.5262 13.0077C19.314 12.7461 19.098 12.4862 18.8803 12.2263C18.0257 11.1979 17.1418 10.1347 16.4428 8.98365C15.1965 6.93226 14.3584 4.45266 13.8039 1.18069C13.6868 0.485306 13.405 0.130293 12.889 0.0278153C12.8066 0.0113456 12.7279 0.00402629 12.6511 0.00402629C12.2229 0.00402629 11.8825 0.258391 11.6354 0.763461C11.447 1.14592 11.2475 1.53204 11.0553 1.90536C10.5576 2.86609 10.0434 3.86159 9.68836 4.8882C7.87304 10.1493 8.63613 14.8743 11.9575 18.9332C12.0051 18.9917 12.038 19.0576 12.0765 19.1326C12.0966 19.1711 12.1167 19.215 12.1442 19.2625L12.2082 19.3797L11.8514 19.4272C11.7269 19.4437 11.6226 19.4565 11.5202 19.473C10.9529 19.5608 10.3728 19.6432 9.81463 19.7237C8.52267 19.9067 7.1868 20.0952 5.89668 20.3807C3.70255 20.8638 2.20564 21.5848 1.04545 22.7157C0.344573 23.3983 -0.0159296 24.1815 0.000540044 24.9794C0.0170097 25.7498 0.388492 26.4836 1.07839 27.1003C1.72436 27.6804 2.53321 28.1909 3.4793 28.6173C5.72466 29.6329 8.10727 29.9934 9.93175 30.1929C10.6857 30.2753 11.4433 30.3375 12.2448 30.4034C12.6218 30.4345 13.0079 30.4656 13.4087 30.5003L13.5002 30.5077L13.491 30.5992C12.8359 37.5805 14.4829 42.9532 18.5253 47.0267L18.582 47.0835L18.5326 47.1475C17.3047 48.7195 16.7721 50.4177 16.9972 52.061C17.2333 53.7939 18.3111 55.4501 20.0331 56.7219C21.0012 57.4374 21.9985 58.0083 22.9995 58.4219C27.2011 60.1567 31.7431 60.4623 36.5028 59.3332C38.9952 58.7422 40.9972 57.7704 42.6259 56.3669C44.7706 54.5168 45.5904 52.5166 45.1292 50.2493C44.9828 49.5265 44.6663 48.8421 44.3332 48.1174C44.1923 47.81 44.0459 47.4934 43.9105 47.1676L43.8666 47.1603L43.8483 47.1073C43.8355 47.067 43.841 47.0341 43.9178 46.9517L43.9837 46.8639L43.9892 46.8767C47.3545 43.3192 49.0326 38.9932 48.9777 34.0175C48.9685 33.249 48.9703 32.4895 48.974 31.6862C48.974 31.3129 48.9758 30.9359 48.9758 30.5479V30.4619L50.8241 30.3338C53.4245 30.1508 55.657 29.7354 57.6462 29.0657C58.8027 28.6759 60.1276 28.1434 61.1725 27.1405L61.1744 27.1424ZM44.7248 14.0252C47.1111 11.5621 48.8002 8.47675 49.8908 4.59357L49.9494 4.38313L50.0573 4.57344C52.1325 8.20592 52.1252 14.3692 48.4909 17.9944L48.4067 18.0786L48.3481 17.9743C47.2062 15.9631 46.7341 15.4654 44.7413 14.1661L44.648 14.1057L44.7248 14.0252ZM12.1954 4.54416L12.3015 4.33738L12.3656 4.5588C13.5331 8.60302 15.1837 11.6334 17.559 14.0947L17.6414 14.1789L17.5389 14.2375C15.9688 15.1268 14.8434 16.3072 14.1022 17.8443L14.0473 17.9596L13.9558 17.8699C10.6564 14.6144 9.91528 9.00927 12.1972 4.54233L12.1954 4.54416ZM42.1244 53.8397C40.8691 55.3732 39.1398 56.4071 36.834 57C35.5274 57.3367 34.1696 57.5527 32.8557 57.7631C32.2793 57.8546 30.9708 57.8565 30.9708 57.8565C27.3329 57.7741 24.5129 57.0458 22.101 55.5653C21.5209 55.2085 20.9628 54.7693 20.4851 54.2917C19.5262 53.3328 19.0376 52.2403 19.0706 51.1295C19.1053 50.0023 19.6726 48.9207 20.7139 47.9984C22.101 46.7705 23.801 45.894 25.7682 45.3926C30.4401 44.2013 34.8558 44.5105 38.8946 46.3094C40.2744 46.9243 41.3339 47.7057 42.1336 48.6975C43.4567 50.3371 43.453 52.2129 42.1208 53.8397H42.1244ZM48.9411 28.2952C48.8496 28.2971 48.7581 28.2989 48.6666 28.3007C48.4799 28.3044 48.2859 28.3062 48.0974 28.319C47.2026 28.3721 46.8659 28.718 46.8586 29.5963C46.8494 30.5479 46.8512 31.5178 46.8531 32.4529C46.8531 33.0769 46.8531 33.7028 46.8531 34.3268C46.8403 38.3765 45.5099 41.9394 42.8985 44.9186C42.7576 45.0797 42.6076 45.237 42.474 45.3761C42.4154 45.4365 42.3605 45.4969 42.3074 45.5518L42.258 45.6049L42.1958 45.5701C34.8449 41.4563 27.5817 41.449 19.9929 45.5481L19.9179 45.5884L19.8721 45.5152C19.8666 45.5042 19.8556 45.4859 19.841 45.4585C19.7971 45.3724 19.7056 45.1949 19.5811 45.0559C17.0155 42.1609 15.654 38.7535 15.5314 34.927C15.4948 33.7668 15.5022 32.5883 15.5095 31.4464C15.5131 30.8865 15.5168 30.3283 15.515 29.7684C15.5131 28.6594 15.1947 28.3318 14.0986 28.3154C10.5667 28.2568 7.91879 27.8835 5.51239 27.1058C4.84811 26.8917 4.15273 26.641 3.55799 26.264C3.19748 26.0352 2.89737 25.7077 2.60641 25.3911C2.48014 25.2538 2.35021 25.1111 2.21845 24.9812L2.15258 24.9171L2.21662 24.8513C2.35204 24.714 2.48563 24.5603 2.61373 24.4121C2.90652 24.0717 3.21029 23.7222 3.59459 23.519C4.38147 23.1018 5.28181 22.7559 6.4292 22.4302C9.08447 21.6744 11.8129 21.5226 14.1333 21.475C15.1526 21.453 15.4619 21.184 15.6321 20.1647C16.0914 17.4344 18.3038 15.5184 21.0103 15.5093C27.8141 15.4837 34.6545 15.4837 41.3449 15.5093C44.1008 15.5203 46.3773 17.5351 46.7597 20.3001C46.8769 21.1456 47.2392 21.453 48.1469 21.475C51.0913 21.5445 54.2351 21.7623 57.2674 22.8767C58.0012 23.1457 58.7753 23.563 59.5695 24.1138C59.9373 24.3681 60.1203 24.6408 60.1148 24.9245C60.1093 25.1989 59.9282 25.4533 59.5731 25.6802C58.5685 26.3262 57.6425 26.791 56.7404 27.1003C53.968 28.0537 51.1132 28.2403 48.9337 28.2971L48.9411 28.2952Z" fill="red"/>
<path d="M39.3263 25.0141C40.0692 25.0141 40.8085 25.3435 41.5698 26.0005C41.6082 26.0334 41.6448 26.0682 41.6814 26.1011C41.7491 26.1633 41.8132 26.2219 41.8809 26.2731C42.3548 26.6172 42.9093 26.5824 43.2936 26.1871C43.7127 25.7571 43.7163 25.1568 43.3028 24.7286C42.1407 23.5245 40.8433 22.9188 39.3317 22.8767C37.8385 22.9078 36.4715 23.5501 35.3754 24.7341C35.1558 24.972 35.0496 25.5356 35.1686 25.8339C35.2802 26.1121 35.7267 26.4232 36.0872 26.4744C36.3086 26.5055 36.6655 26.3353 37.037 26.0188C37.822 25.3508 38.576 25.0159 39.3263 25.0159V25.0141Z" fill="red"/>
<path d="M18.8472 24.7781C18.4959 25.2282 18.5178 25.8248 18.8985 26.1945C19.312 26.5952 19.7695 26.6373 20.2581 26.3189C20.3734 26.2439 20.4741 26.1487 20.582 26.0499C20.6479 25.9877 20.7156 25.9255 20.7851 25.8687C22.1686 24.7323 23.6216 24.7396 24.9849 25.8889C25.0435 25.9383 25.1002 25.9895 25.1588 26.0426C25.296 26.1652 25.4241 26.2823 25.5705 26.3683C25.8944 26.5586 26.2604 26.5659 26.5752 26.3884C26.9247 26.1908 27.1388 25.7974 27.1498 25.3325C27.1369 25.3033 27.1241 25.2667 27.1077 25.2246C27.0583 25.091 26.9906 24.9062 26.8771 24.7634C25.9456 23.5922 24.4835 22.9207 22.8622 22.9207H22.8329C21.2134 22.928 19.7604 23.6069 18.8454 24.7799L18.8472 24.7781Z" fill="red"/>
<path d="M35.6645 53.4901C36.2519 53.5359 36.7039 53.1369 36.8082 52.4763C36.9839 51.3765 37.0571 51.2997 38.1276 51.1313C38.8102 51.0233 39.178 50.6134 39.1414 50.0059C39.103 49.4057 38.6602 49.0269 37.9849 49.0177C37.9703 49.0177 37.9538 49.0177 37.9392 49.0177C37.0553 49.0177 36.2373 49.3489 35.6297 49.9546C35.0094 50.5732 34.6727 51.4113 34.6818 52.3153C34.6891 52.9832 35.0734 53.4425 35.6645 53.4883V53.4901Z" fill="red"/>
<path d="M26.8149 53.556C26.2275 53.6018 25.7755 53.2029 25.6711 52.5423C25.4955 51.4424 25.4223 51.3656 24.3517 51.1972C23.6692 51.0893 23.3013 50.6793 23.3379 50.0718C23.3764 49.4716 23.8192 49.0928 24.4945 49.0836C24.5091 49.0836 24.5256 49.0836 24.5402 49.0836C25.4241 49.0836 26.2421 49.4148 26.8496 50.0224C27.47 50.6409 27.8067 51.479 27.7976 52.383C27.7902 53.051 27.4059 53.5103 26.8149 53.556Z" fill="red"/>
</svg>
