<svg width="61" height="60" viewBox="0 0 61 60" fill="none" xmlns="http://www.w3.org/2000/svg">
<path d="M0.00470922 12.0187C2.19274 8.52793 4.97251 5.52057 7.85273 2.61523C9.67819 0.774081 11.9651 -0.126872 14.6036 0.0143924C18.3047 0.213732 20.689 2.28561 21.3717 5.92553C21.5193 6.7119 21.5915 7.51397 21.6605 8.31133C21.7123 8.90778 21.4298 9.25152 20.915 9.3096C20.3798 9.36924 20.0125 9.06631 19.9199 8.47613C19.7676 7.5124 19.6985 6.52669 19.4537 5.58806C18.8792 3.39218 17.4273 2.13179 15.1608 1.82572C11.5021 1.32972 8.1541 3.57583 7.06322 7.23144C6.64571 8.63153 7.12758 9.85425 8.14154 10.8698C8.83688 11.5667 9.69074 12.0219 10.6419 12.2165C13.0356 12.7078 13.8722 14.4846 13.1831 16.6695C12.7154 18.148 12.0247 19.5685 11.3247 20.9592C10.0565 23.48 8.83217 26.0133 8.24514 28.7947C7.07892 34.3165 8.69875 38.9233 12.9163 42.6166C15.3084 44.7105 18.0096 46.3036 21.0296 47.3396C23.3746 48.1448 25.6332 49.1368 27.4838 50.8351C28.1681 51.4629 28.7002 52.2556 29.3265 52.9509C29.474 53.1157 29.7158 53.2837 29.9214 53.2946C31.5993 53.3857 31.6009 53.3747 32.3998 51.8883C32.9178 50.923 33.4467 49.9639 33.949 48.9908C34.1954 48.5136 34.5549 48.3096 35.0854 48.3425C40.477 48.6722 46.1087 44.6132 46.8967 37.823C47.2106 35.1186 46.8857 32.5209 45.7414 29.9373C45.5641 30.1257 45.4228 30.2701 45.2878 30.4224C43.6021 32.3153 41.7531 34.0277 39.7016 35.5189C39.0486 35.9929 38.3502 35.7527 38.2105 35.0213C38.1241 34.5645 38.391 34.2961 38.7237 34.0513C40.7344 32.5696 42.5598 30.887 44.1812 28.9893C44.9456 28.0946 44.9833 28.3944 44.2409 27.4228C42.2255 24.7859 39.6404 23.0028 36.385 22.207C32.2256 21.1899 28.1038 21.0534 24.0338 22.5932C22.3888 23.2163 20.915 24.1204 19.6248 25.329C15.142 29.5245 17.0538 35.3682 21.5962 37.4134C24.4168 38.6832 27.3331 38.7067 30.2745 38.0365C31.5067 37.7556 32.6949 37.2784 33.8925 36.8624C34.5596 36.6317 35.0085 36.74 35.2188 37.2596C35.4354 37.7932 35.2188 38.2154 34.5768 38.4901C30.9667 40.0283 27.2389 40.7174 23.3479 39.8604C20.1255 39.1509 17.5639 37.4777 16.1387 34.3997C14.5393 30.9435 15.3178 27.1434 18.1839 24.2742C18.9263 23.5318 19.7833 22.9039 20.634 22.1819C19.0644 20.8415 19.044 18.9705 19.1696 17.0682C19.2088 16.4843 19.3093 15.9035 19.394 15.3228C19.4929 14.6447 19.5871 13.9666 19.7127 13.2948C19.8194 12.7219 20.1883 12.4692 20.7094 12.5618C21.2336 12.6544 21.5036 13.0186 21.4267 13.5821C21.2477 14.899 21.0045 16.2112 20.8852 17.5328C20.8239 18.2014 20.9103 18.9046 21.0547 19.5638C21.1457 19.9782 21.4204 20.3863 21.7045 20.7159C22.1 21.1727 22.5725 21.2998 23.2176 21.0377C26.7194 19.6172 30.3609 19.41 34.0651 19.9547C34.8578 20.0708 35.6504 20.2121 36.4243 20.4161C36.8575 20.5307 37.0427 20.4271 37.2326 20.0426C38.9639 16.558 40.7595 13.1033 42.4468 9.59683C43.6617 7.0682 45.9737 6.33519 47.7898 6.68364C50.0547 7.11843 51.7562 9.13851 51.9398 11.5463C52.0214 12.6168 51.8927 13.6511 51.436 14.7122C54.0949 14.6102 56.0333 15.7104 57.1415 18.0696C58.2292 20.3832 57.9891 22.6293 56.4979 24.7969C58.6357 25.4765 59.8961 26.9378 60.1159 29.1463C60.3372 31.3704 59.4033 33.0577 57.3706 34.1533C58.7487 35.5911 59.1411 37.2721 58.496 39.1227C57.8541 40.967 56.5105 42.0249 54.492 42.2917C55.1418 44.0151 54.9409 45.6208 53.8327 47.0617C52.7168 48.5105 51.2084 49.0991 49.4065 48.8919C49.3201 49.3612 49.2825 49.7913 49.1616 50.1962C48.3407 52.9368 45.1418 53.9633 42.9491 52.1284C42.1203 51.4347 41.4564 50.5321 40.7721 49.6798C40.4628 49.2937 40.2384 49.2043 39.722 49.3361C38.4396 49.6626 37.1243 49.8682 35.8152 50.0754C35.4935 50.1272 35.2894 50.1947 35.1325 50.4976C34.558 51.6089 33.9553 52.706 33.362 53.8095C32.935 54.6027 32.2747 55.05 31.3811 55.1515C31.2132 56.1356 31.0436 57.1323 30.8647 58.1918C31.152 58.2154 31.3984 58.2248 31.6417 58.2562C32.1549 58.3221 32.4139 58.647 32.3966 59.1383C32.3794 59.6186 32.1298 59.9498 31.604 59.989C31.4863 59.9984 31.3686 59.9969 31.2524 59.9969C26.6896 59.9969 22.1267 59.9953 17.5655 60C17.0396 60 16.5672 59.9404 16.451 59.3094C16.3364 58.6784 16.7194 58.2499 17.4367 58.2405C18.6108 58.2248 19.7864 58.2185 20.9605 58.2452C21.3953 58.2546 21.5836 58.1385 21.6307 57.6786C21.7155 56.8482 21.8709 56.0242 22.009 55.1264C20.9966 55.2221 20.6921 54.6194 20.4739 53.8252C20.0329 52.2242 19.5039 50.6467 19.0534 49.0473C18.9232 48.5843 18.6799 48.3378 18.2592 48.1385C15.2142 46.6866 12.4046 44.8878 10.1318 42.3576C6.38201 38.1809 5.37433 33.3261 6.641 27.9283C6.73831 27.5154 6.84505 27.1042 6.94707 26.6898C3.02934 25.9349 1.98084 20.9168 4.85636 18.0554C5.65372 17.2612 6.38358 16.3775 7.0177 15.4483C7.54666 14.6714 7.70833 13.7531 7.31593 12.8145C7.18722 12.5053 7.03968 12.3703 6.65983 12.4253C4.82026 12.6905 2.97283 12.9024 1.13325 13.163C0.599589 13.2383 0.302934 12.9479 0 12.6105V12.0234L0.00470922 12.0187ZM46.8229 27.8435C49.0078 26.908 51.2806 25.9615 53.5298 24.9633C54.7933 24.4029 55.6927 23.4627 55.9407 22.0595C56.2845 20.11 55.5781 18.5106 54.1011 17.2644C52.6037 16.0008 50.8018 16.0919 49.3876 17.4511C48.9371 17.8843 48.5338 18.3662 48.1178 18.8355C46.5874 20.5637 45.0634 22.2949 43.5879 23.9634C44.6663 25.2568 45.7116 26.5109 46.8213 27.8435H46.8229ZM42.1831 22.9008C44.5705 20.1838 47.0458 17.4904 49.3751 14.6745C51.1315 12.5508 49.7816 9.18089 47.0615 8.59229C46.1621 8.39765 45.3836 8.60798 44.7667 9.2782C44.4936 9.57486 44.277 9.93744 44.0933 10.3C42.3668 13.7155 40.6528 17.1372 38.9356 20.5574C38.8603 20.7081 38.7991 20.8682 38.7441 20.9937C39.9009 21.6357 41.0216 22.2573 42.1831 22.9024V22.9008ZM48.6279 33.1346C48.9811 33.1346 49.3704 33.1519 49.7565 33.1315C51.6306 33.0326 53.5047 32.929 55.3788 32.816C56.713 32.736 57.6814 32.0814 58.1868 30.8461C58.6765 29.647 58.5416 28.487 57.6375 27.517C56.7161 26.5266 55.5232 26.1609 54.2675 26.6396C51.99 27.5076 49.7628 28.5059 47.5418 29.4398C47.9106 30.6939 48.2654 31.9041 48.6279 33.1346ZM48.8351 34.9256C48.7598 36.0996 48.6797 37.1701 48.6373 38.2421C48.6311 38.396 48.7755 38.6455 48.9105 38.6989C50.3608 39.2781 51.808 39.8714 53.285 40.3721C54.4245 40.7582 55.462 40.4286 56.2735 39.5512C57.0897 38.6706 57.3 37.6206 56.8323 36.5061C56.3724 35.4121 55.5311 34.6901 54.3209 34.6948C52.4892 34.7027 50.6574 34.8408 48.8335 34.924L48.8351 34.9256ZM9.30305 13.6904C9.19004 15.7387 8.18549 17.2204 6.89684 18.5546C6.6253 18.8355 6.29255 19.0694 6.07123 19.3833C5.71807 19.8872 5.32881 20.4067 5.14203 20.9812C4.62563 22.5571 5.39002 24.3009 6.71477 24.7749C7.44307 25.0355 7.55922 24.9978 7.89197 24.2978C8.87141 22.2369 9.86183 20.1807 10.8067 18.1025C11.1285 17.3978 11.3828 16.6506 11.5711 15.8988C11.8254 14.8801 11.5743 14.4642 10.6043 14.0953C10.2071 13.9446 9.7912 13.841 9.30619 13.6904H9.30305ZM46.487 44.4719C46.9955 45.0228 47.5559 45.6742 48.1649 46.2769C49.0392 47.1418 50.0861 47.3867 51.2335 46.9158C52.3824 46.4433 53.0621 45.5643 53.084 44.3071C53.106 43.0718 52.5457 42.1018 51.3983 41.587C50.3686 41.1255 49.2982 40.7582 48.3015 40.3721C47.6987 41.7345 47.1086 43.0671 46.487 44.4719ZM23.8125 55.0793C23.6492 56.1623 23.497 57.1669 23.3369 58.2295C25.2173 58.2295 26.9909 58.2342 28.7662 58.2201C28.8839 58.2201 29.0863 58.0929 29.1036 57.9988C29.281 57.0476 29.4285 56.0917 29.5996 55.0526C28.6484 55.2441 28.2639 54.723 27.8793 54.0261C27.5042 53.3464 26.9329 52.7751 26.3662 52.0531C26.0758 52.783 25.8106 53.3276 25.6442 53.9005C25.3852 54.792 24.9143 55.3194 23.8125 55.0793ZM42.0842 48.4838C42.5426 49.0536 43.0292 49.661 43.5204 50.2669C43.6303 50.4034 43.7433 50.54 43.8689 50.6624C44.6317 51.4158 45.8199 51.4739 46.7114 50.8068C47.5779 50.1586 47.8981 48.9767 47.2969 48.0961C46.7334 47.2736 46.0036 46.5658 45.4071 45.8783C44.2613 46.7761 43.2049 47.6048 42.0842 48.4838ZM24.8751 50.9732C23.5943 50.4223 22.3496 49.887 20.9652 49.2906C21.2917 50.3626 21.5585 51.2385 21.8238 52.1127C22.2366 53.4689 22.2366 53.4736 23.6492 53.3433C23.7889 53.3307 23.9883 53.2177 24.0401 53.1C24.3226 52.4408 24.569 51.7659 24.8751 50.9732ZM5.72121 10.7756C5.48734 9.88878 5.27544 9.08828 5.04785 8.225C4.29601 9.15263 3.54574 10.0803 2.7939 11.0079C2.81744 11.0503 2.84098 11.0911 2.8661 11.1335C3.81885 11.0142 4.77317 10.8949 5.72121 10.7772V10.7756Z" fill="#ED1C24"/>
</svg>
