<svg width="118" height="61" viewBox="0 0 118 61" fill="none" xmlns="http://www.w3.org/2000/svg">
<rect x="0.760498" y="1.6582" width="115" height="58" rx="29" fill="white"/>
<g clip-path="url(#clip0_7_217)">
<path fill-rule="evenodd" clip-rule="evenodd" d="M34.2641 37.9135C34.2641 40.1838 32.351 41.5391 29.156 41.5391C26.827 41.5391 24.9189 40.9519 22.1202 39.3814C21.6163 39.0829 20.7992 38.7208 19.7961 38.7208C17.7461 38.7208 16.1364 40.3306 16.1364 42.3855C16.1364 43.7702 16.836 45.0276 18.0445 45.83H18.0494C19.8108 46.9456 23.5538 48.8097 28.8527 48.8097C37.2535 48.8097 42.4692 44.5383 42.4692 37.6542C42.4692 31.4795 38.8926 27.9665 31.5339 26.9048L29.7529 26.6553C25.3935 26.0388 24.8357 24.5269 24.8357 23.2793C24.8357 21.2292 26.3965 20.006 29.0043 20.006C30.8391 20.006 32.8403 20.4904 34.6261 21.3711C35.3943 21.7625 36.1869 21.968 36.9306 21.968C38.9611 21.968 40.4925 20.4121 40.4925 18.3571C40.4925 16.9725 39.8467 15.8618 38.5746 15.0545C36.3826 13.665 32.5173 12.7305 28.9603 12.7305C21.4744 12.7305 16.6354 16.9921 16.6354 23.5826C16.6354 29.635 20.3295 33.2165 27.6197 34.2293L29.4006 34.4788C33.4372 35.0366 34.2689 36.2549 34.2689 37.9086" fill="#ED1C24"/>
<path fill-rule="evenodd" clip-rule="evenodd" d="M61.6293 34.7053H54.7843L58.2288 24.1663L61.6293 34.7053ZM52.8859 17.5709L43.7707 43.1551C43.5994 43.6297 43.5016 44.1777 43.5016 44.7012C43.5016 47.1183 45.488 48.5665 47.4109 48.5665C49.187 48.5665 50.601 47.4901 51.1979 45.6798L52.4456 41.7803H63.9191L65.2206 45.6847C65.8126 47.4901 67.2266 48.5714 69.0076 48.5714C70.9255 48.5714 72.912 47.1281 72.912 44.7061C72.912 44.1826 72.8141 43.6297 72.6429 43.1649L63.6794 17.5757C62.6078 14.4884 60.8367 12.9863 58.2582 12.9863C55.6797 12.9863 53.9574 14.4884 52.8908 17.5709H52.8859Z" fill="#ED1C24"/>
<path fill-rule="evenodd" clip-rule="evenodd" d="M88.745 27.2638H83.7348V20.0616H88.745C91.3675 20.0616 92.8158 21.3337 92.8158 23.6382C92.8158 25.9427 91.3332 27.2638 88.745 27.2638ZM83.7348 41.4919V33.7369H89.1364C91.8176 33.7369 93.354 35.1313 93.354 37.5679C93.354 40.0045 91.8568 41.4919 89.1364 41.4919H83.7348ZM75.6764 16.9547V44.6576C75.6764 46.8544 77.0708 48.2733 79.2383 48.2733H89.3419C97.1312 48.2733 101.417 44.5988 101.417 37.9251C101.417 34.0109 99.4161 31.2661 97.2584 30.0967C99.5629 28.575 100.825 26.0063 100.825 22.7918C100.825 16.759 96.7642 13.2949 89.6893 13.2949H79.2383C77.0757 13.2949 75.6764 14.7334 75.6764 16.9596V16.9547Z" fill="#ED1C24"/>
<path fill-rule="evenodd" clip-rule="evenodd" d="M29.5523 60.7734H87.9964C104.294 60.7734 117.549 47.3183 117.549 30.7759C117.549 14.2334 104.294 0.773438 87.9964 0.773438H29.5523C13.2594 0.773438 0 14.2334 0 30.771C0 47.3085 13.2594 60.7685 29.5523 60.7685M1.99625 30.678C1.99625 22.8447 5.22547 15.7453 10.4363 10.5981C15.6471 5.45582 22.8345 2.27062 30.7657 2.27062H86.7879C94.7191 2.27062 101.911 5.45582 107.117 10.5981C112.328 15.7453 115.557 22.8447 115.557 30.678C115.557 38.5113 112.328 45.6157 107.117 50.7579C101.907 55.9002 94.7142 59.0854 86.7879 59.0854H30.7657C22.8345 59.0854 15.6422 55.9002 10.4363 50.7579C5.22547 45.6108 1.99625 38.5113 1.99625 30.678Z" fill="#ED1C24"/>
</g>
<defs>
<clipPath id="clip0_7_217">
<rect width="117.554" height="60" fill="white" transform="translate(0 0.773438)"/>
</clipPath>
</defs>
</svg>
