<svg width="158" height="82" viewBox="0 0 158 82" fill="none" xmlns="http://www.w3.org/2000/svg">
<g clip-path="url(#clip0_4_9)">
<path d="M118.073 81.4263H39.653C17.7913 81.4263 0 63.3659 0 41.1694C0 18.9729 17.7913 0.919022 39.653 0.919022H118.073C139.941 0.919022 157.726 18.9795 157.726 41.1694C157.726 63.3593 139.934 81.4198 118.073 81.4198" fill="#ED1C24"/>
<path d="M41.2811 77.9731H116.451C126.771 77.9731 136.127 73.8306 142.902 67.1408C149.677 60.4576 153.865 51.2271 153.865 41.0447C153.865 30.8623 149.67 21.6318 142.902 14.9486C136.127 8.25876 126.771 4.11621 116.451 4.11621H41.2811C30.9608 4.11621 21.6056 8.25876 14.8305 14.9486C8.06189 21.6318 3.86682 30.8623 3.86682 41.0447C3.86682 51.2271 8.06189 60.4576 14.8305 67.1408C21.6056 73.8306 30.9608 77.9731 41.2811 77.9731ZM116.451 79.1614H41.2811C30.6391 79.1614 20.9885 74.8876 14.0033 67.9877C7.01148 61.0812 2.67854 51.5553 2.67854 41.0447C2.67854 30.534 7.01148 21.0081 14.0033 14.1017C20.9951 7.20179 30.6391 2.92793 41.2811 2.92793H116.451C127.093 2.92793 136.744 7.20179 143.729 14.1017C150.721 21.0081 155.054 30.534 155.054 41.0447C155.054 51.5553 150.721 61.0878 143.729 67.9877C136.737 74.8876 127.086 79.1614 116.451 79.1614Z" fill="white"/>
<path d="M42.3184 35.9961L39.9287 35.6548C34.0792 34.8276 33.3308 32.799 33.3308 31.1249C33.3308 28.3741 35.4251 26.7328 38.9242 26.7328C41.3861 26.7328 44.0712 27.3828 46.4675 28.5645C47.4982 29.0897 48.5617 29.3654 49.5596 29.3654C52.2841 29.3654 54.339 27.2843 54.339 24.5204C54.339 22.6625 53.4724 21.1722 51.7655 20.089C48.8243 18.2245 43.638 16.9706 38.8652 16.9706C28.8206 16.9706 22.3278 22.6888 22.3278 31.5319C22.3278 39.6529 27.2844 44.4585 37.0663 45.8175L39.456 46.1523C44.8722 46.9007 45.9882 48.5354 45.9882 50.7544C45.9882 53.8006 43.4213 55.6191 39.1343 55.6191C36.0094 55.6191 33.449 54.8313 29.6938 52.7239C29.0176 52.3234 27.9212 51.8376 26.5754 51.8376C23.8246 51.8376 21.6647 53.9975 21.6647 56.7549C21.6647 58.6128 22.5969 60.3 24.2251 61.3767H24.2316C26.5951 62.8735 31.6173 65.3748 38.7273 65.3748C49.9995 65.3748 56.9978 59.6435 56.9978 50.4064C56.9978 42.1213 52.1988 37.4076 42.3249 35.983" fill="white"/>
<path d="M85.4377 23.4569C83.9999 19.3143 81.6234 17.2988 78.1636 17.2988C74.7038 17.2988 72.3929 19.3143 70.9617 23.4503L58.731 57.779C58.5012 58.4158 58.3699 59.1511 58.3699 59.8536C58.3699 63.0967 61.0354 65.04 63.6154 65.04C65.9985 65.04 67.8958 63.5956 68.6968 61.1666L70.3709 55.9342H85.7659L87.5122 61.1731C88.3066 63.5956 90.2039 65.0465 92.5936 65.0465C95.1671 65.0465 97.8325 63.1098 97.8325 59.8601C97.8325 59.1577 97.7012 58.4158 97.4714 57.7921L85.4442 23.4569H85.4377ZM82.6935 46.4411H73.509L78.1308 32.3L82.6935 46.4411Z" fill="white"/>
<path d="M130.494 40.2503C133.586 38.2086 135.28 34.7619 135.28 30.4487C135.28 22.3539 129.831 17.7059 120.338 17.7059H106.315C103.413 17.7059 101.535 19.636 101.535 22.6231V59.7945C101.535 62.7422 103.406 64.6461 106.315 64.6461H119.871C130.323 64.6461 136.074 59.7157 136.074 50.761C136.074 45.5089 133.389 41.8259 130.494 40.2569M119.07 36.4688H112.348V26.8051H119.07C122.589 26.8051 124.533 28.512 124.533 31.6041C124.533 34.6963 122.543 36.4688 119.07 36.4688ZM112.348 45.1544H119.596C123.193 45.1544 125.255 47.0254 125.255 50.2948C125.255 53.5642 123.246 55.56 119.596 55.56H112.348V45.1544Z" fill="white"/>
</g>
<defs>
<clipPath id="clip0_4_9">
<rect width="157.732" height="80.5073" fill="white" transform="translate(0 0.919022)"/>
</clipPath>
</defs>
</svg>
