<svg width="40" height="40" viewBox="0 0 40 40" fill="none" xmlns="http://www.w3.org/2000/svg">
<path fill-rule="evenodd" clip-rule="evenodd" d="M20 0C8.95431 0 0 8.9543 0 20C0 31.0457 8.95431 40 20 40C31.0457 40 40 31.0457 40 20C40 8.9543 31.0457 0 20 0ZM15.6034 9.39843C16.7412 9.34665 17.1047 9.33398 20.0017 9.33398H19.9983C22.8961 9.33398 23.2584 9.34665 24.3961 9.39843C25.5317 9.45043 26.3073 9.63021 26.9873 9.89399C27.6895 10.1662 28.2828 10.5307 28.8762 11.124C29.4695 11.7169 29.834 12.312 30.1073 13.0136C30.3695 13.6918 30.5495 14.4669 30.6029 15.6025C30.654 16.7403 30.6673 17.1038 30.6673 20.0008C30.6673 22.8977 30.654 23.2604 30.6029 24.3981C30.5495 25.5333 30.3695 26.3086 30.1073 26.9871C29.834 27.6884 29.4695 28.2835 28.8762 28.8764C28.2835 29.4697 27.6893 29.8351 26.9879 30.1075C26.3093 30.3713 25.5333 30.5511 24.3977 30.6031C23.2599 30.6549 22.8975 30.6675 20.0003 30.6675C17.1036 30.6675 16.7403 30.6549 15.6025 30.6031C14.4671 30.5511 13.6918 30.3713 13.0131 30.1075C12.312 29.8351 11.7169 29.4697 11.1242 28.8764C10.5311 28.2835 10.1667 27.6884 9.89399 26.9868C9.63043 26.3086 9.45065 25.5335 9.39843 24.3979C9.34687 23.2601 9.33398 22.8977 9.33398 20.0008C9.33398 17.1038 9.34732 16.7401 9.39821 15.6023C9.44932 14.4671 9.62932 13.6918 9.89377 13.0134C10.1671 12.312 10.5316 11.7169 11.1249 11.124C11.7178 10.5309 12.3129 10.1664 13.0145 9.89399C13.6927 9.63021 14.4678 9.45043 15.6034 9.39843Z" fill="white"/>
<path fill-rule="evenodd" clip-rule="evenodd" d="M19.0435 11.2566C19.2293 11.2563 19.4292 11.2564 19.6449 11.2565L20.0004 11.2566C22.8484 11.2566 23.186 11.2668 24.3107 11.3179C25.3507 11.3655 25.9151 11.5392 26.2911 11.6852C26.7889 11.8786 27.1438 12.1097 27.5169 12.483C27.8903 12.8564 28.1214 13.2119 28.3151 13.7097C28.4611 14.0853 28.6352 14.6497 28.6825 15.6897C28.7336 16.8142 28.7447 17.152 28.7447 19.9987C28.7447 22.8454 28.7336 23.1831 28.6825 24.3076C28.6349 25.3476 28.4611 25.9121 28.3151 26.2876C28.1218 26.7854 27.8903 27.1398 27.5169 27.513C27.1436 27.8863 26.7891 28.1174 26.2911 28.3108C25.9156 28.4574 25.3507 28.6308 24.3107 28.6783C23.1862 28.7294 22.8484 28.7405 20.0004 28.7405C17.1521 28.7405 16.8146 28.7294 15.6901 28.6783C14.6501 28.6303 14.0857 28.4565 13.7094 28.3105C13.2117 28.1172 12.8561 27.8861 12.4828 27.5127C12.1094 27.1394 11.8783 26.7847 11.6845 26.2867C11.5385 25.9112 11.3645 25.3467 11.3172 24.3067C11.2661 23.1823 11.2559 22.8445 11.2559 19.996C11.2559 17.1475 11.2661 16.8115 11.3172 15.6871C11.3647 14.6471 11.5385 14.0826 11.6845 13.7066C11.8779 13.2088 12.1094 12.8533 12.4828 12.4799C12.8561 12.1066 13.2117 11.8755 13.7094 11.6817C14.0854 11.535 14.6501 11.3617 15.6901 11.3139C16.6741 11.2695 17.0555 11.2561 19.0435 11.2539V11.2566ZM25.6947 13.0278C24.9881 13.0278 24.4147 13.6005 24.4147 14.3074C24.4147 15.014 24.9881 15.5874 25.6947 15.5874C26.4014 15.5874 26.9747 15.014 26.9747 14.3074C26.9747 13.6007 26.4014 13.0273 25.6947 13.0273V13.0278ZM14.5229 19.9993C14.5229 16.9742 16.9755 14.5216 20.0006 14.5215C23.0257 14.5215 25.4777 16.9742 25.4777 19.9993C25.4777 23.0245 23.0259 25.476 20.0008 25.476C16.9756 25.476 14.5229 23.0245 14.5229 19.9993Z" fill="white"/>
<path d="M20.0009 16.4453C21.9645 16.4453 23.5565 18.0371 23.5565 20.0009C23.5565 21.9645 21.9645 23.5565 20.0009 23.5565C18.0371 23.5565 16.4453 21.9645 16.4453 20.0009C16.4453 18.0371 18.0371 16.4453 20.0009 16.4453Z" fill="white"/>
</svg>
