<svg width="116" height="49" viewBox="0 0 116 49" fill="none" xmlns="http://www.w3.org/2000/svg">
<path d="M21.3184 19.0773L18.9287 18.7359C13.0792 17.9087 12.3308 15.8801 12.3308 14.206C12.3308 11.4553 14.4251 9.814 17.9242 9.814C20.3861 9.814 23.0712 10.4639 25.4675 11.6457C26.4982 12.1709 27.5617 12.4466 28.5596 12.4466C31.2841 12.4466 33.339 10.3655 33.339 7.60158C33.339 5.74367 32.4724 4.2534 30.7655 3.17016C27.8243 1.30568 22.638 0.0517578 17.8652 0.0517578C7.82061 0.0517578 1.32777 5.76993 1.32777 14.6131C1.32777 22.734 6.28439 27.5397 16.0663 28.8986L18.456 29.2335C23.8722 29.9819 24.9882 31.6166 24.9882 33.8356C24.9882 36.8817 22.4213 38.7003 18.1343 38.7003C15.0094 38.7003 12.449 37.9125 8.69376 35.8051C8.01756 35.4046 6.9212 34.9188 5.57536 34.9188C2.8246 34.9188 0.664696 37.0787 0.664696 39.836C0.664696 41.6939 1.59694 43.3812 3.22507 44.4578H3.23163C5.59506 45.9547 10.6173 48.4559 17.7273 48.4559C28.9995 48.4559 35.9978 42.7246 35.9978 33.4876C35.9978 25.2025 31.1988 20.4888 21.3249 19.0642" fill="white"/>
<path d="M64.4377 6.53791C62.9999 2.39536 60.6234 0.379883 57.1636 0.379883C53.7038 0.379883 51.3929 2.39536 49.9617 6.53134L37.731 40.86C37.5012 41.4969 37.3699 42.2321 37.3699 42.9346C37.3699 46.1777 40.0354 48.121 42.6154 48.121C44.9985 48.121 46.8958 46.6767 47.6968 44.2476L49.3709 39.0153H64.7659L66.5122 44.2542C67.3066 46.6767 69.2039 48.1276 71.5936 48.1276C74.1671 48.1276 76.8325 46.1909 76.8325 42.9412C76.8325 42.2387 76.7012 41.4969 76.4714 40.8732L64.4442 6.53791H64.4377ZM61.6935 29.5222H52.509L57.1308 15.381L61.6935 29.5222Z" fill="white"/>
<path d="M109.494 23.331C112.586 21.2893 114.28 17.8426 114.28 13.5294C114.28 5.43468 108.831 0.786621 99.3375 0.786621H85.3146C82.4128 0.786621 80.5352 2.71675 80.5352 5.70385V42.8752C80.5352 45.8229 82.4063 47.7268 85.3146 47.7268H98.8714C109.323 47.7268 115.074 42.7964 115.074 33.8417C115.074 28.5896 112.389 24.9067 109.494 23.3376M98.0705 19.5496H91.3479V9.88579H98.0705C101.589 9.88579 103.533 11.5927 103.533 14.6849C103.533 17.777 101.543 19.5496 98.0705 19.5496ZM91.3479 28.2351H98.5957C102.193 28.2351 104.255 30.1062 104.255 33.3756C104.255 36.645 102.246 38.6408 98.5957 38.6408H91.3479V28.2351Z" fill="white"/>
</svg>
