<svg xmlns="http://www.w3.org/2000/svg" width="40" height="40" fill="none"><path fill="#fff" fill-rule="evenodd" d="M20 0C8.954 0 0 8.954 0 20s8.954 20 20 20 20-8.954 20-20S31.046 0 20 0Zm8.335 13.124c.918.252 1.64.994 1.886 1.936.446 1.708.446 5.273.446 5.273s0 3.564-.446 5.272a2.709 2.709 0 0 1-1.886 1.937c-1.664.457-8.335.457-8.335.457s-6.671 0-8.335-.457a2.709 2.709 0 0 1-1.886-1.937c-.445-1.708-.445-5.272-.445-5.272s0-3.564.445-5.273a2.708 2.708 0 0 1 1.886-1.936c1.664-.458 8.335-.458 8.335-.458s6.671 0 8.335.458Z" clip-rule="evenodd"/><path fill="#fff" d="M18 24v-6.666l5.333 3.333L18 24.001Z"/></svg>